


<svg version="1.1" id="레이어_1" xmlns="http://www.w3.org/2000/svg" xmlns:xlink="http://www.w3.org/1999/xlink" x="0px" y="0px" width="1000px" height="358px" viewBox="0 0 1000 358" enable-background="new 0 0 1000 358" xml:space="preserve">
<g id="miHoYo_Logo_1_">
	<g id="TECH_OTAKUS_SAVE_THE_WORLD">
		<polygon fill="#74D8F1" points="54.458,328.365 46.346,328.365 46.346,357.016 41.462,357.016 41.462,328.365 33.293,328.365 
			33.293,324.082 54.458,324.082 54.458,328.365 		"></polygon>
		<polygon fill="#74D8F1" points="86.123,357.016 70.008,357.016 70.008,324.082 86.067,324.082 86.067,328.372 74.863,328.372 
			74.863,338.368 86.123,338.368 86.123,342.598 74.863,342.598 74.863,352.796 86.123,352.796 		"></polygon>
		<path fill="#74D8F1" d="M106.409,340.908c-0.028,1.716,0.237,3.418,0.781,5.05c0.475,1.438,1.228,2.763,2.219,3.907
			c0.948,1.081,2.12,1.94,3.432,2.513c1.402,0.612,2.916,0.921,4.443,0.893c1.521,0,3.036-0.209,4.5-0.615
			c1.493-0.403,2.931-0.997,4.284-1.757v4.506c-1.319,0.704-2.728,1.229-4.187,1.542c-1.659,0.356-3.354,0.536-5.05,0.522
			c-2.148,0.021-4.284-0.39-6.264-1.228c-1.855-0.78-3.53-1.938-4.912-3.403c-1.395-1.514-2.483-3.294-3.18-5.232
			c-1.542-4.423-1.507-9.237,0.083-13.631c0.761-2.023,1.904-3.88,3.377-5.455c1.436-1.536,3.173-2.749,5.099-3.572
			c2.03-0.872,4.221-1.313,6.432-1.284c0.789,0,1.577,0.043,2.365,0.141c0.795,0.09,1.576,0.216,2.344,0.377
			c0.76,0.152,1.479,0.349,2.141,0.558c0.635,0.195,1.263,0.432,1.877,0.712v4.479c-0.586-0.259-1.228-0.518-1.939-0.769
			c-0.719-0.251-1.431-0.474-2.219-0.67c-0.768-0.194-1.55-0.349-2.345-0.475c-0.767-0.111-1.534-0.173-2.315-0.173
			c-3-0.028-5.874,1.276-7.821,3.571c-1.025,1.221-1.806,2.616-2.308,4.123C106.66,337.267,106.381,339.08,106.409,340.908
			L106.409,340.908z"></path>
		<polygon fill="#74D8F1" points="169.688,357.016 164.784,357.016 164.784,342.38 147.261,342.38 147.261,357.008 142.349,357.008 
			142.349,324.082 147.261,324.082 147.261,338.146 164.784,338.146 164.784,324.082 169.688,324.082 169.688,357.008 		"></polygon>
		<path fill="#74D8F1" d="M235.09,333.389c-0.641-1.912-1.59-3.676-2.917-5.197c-1.284-1.451-2.84-2.603-4.625-3.37
			c-1.934-0.816-3.988-1.22-6.087-1.192c-2.254-0.034-4.484,0.376-6.577,1.221c-1.877,0.774-3.561,1.961-4.914,3.475
			c-1.396,1.583-2.44,3.439-3.076,5.447c-0.731,2.309-1.093,4.723-1.05,7.144c-0.028,2.31,0.335,4.604,1.073,6.795
			c0.643,1.932,1.676,3.704,3.029,5.226c1.325,1.457,2.943,2.608,4.758,3.361c1.973,0.81,4.087,1.215,6.221,1.186
			c2.205,0.036,4.396-0.376,6.434-1.213c1.849-0.774,3.501-1.953,4.82-3.46c1.374-1.598,2.27-3.46,2.896-5.47
			c0.74-2.336,0.924-4.771,0.924-7.213v-0.015C236,337.832,235.81,335.559,235.09,333.389z M231.245,340.65
			c0.035,1.8-0.189,3.592-0.663,5.329c-0.405,1.445-1.089,2.798-2.024,3.971c-0.85,1.072-1.939,1.925-3.18,2.482
			c-1.375,0.593-2.86,0.879-4.353,0.852c-2.854,0.055-5.561-1.228-7.312-3.481c-0.921-1.193-1.598-2.547-1.994-3.997
			c-0.496-1.689-0.74-3.433-0.719-5.19c-0.028-1.758,0.216-3.517,0.719-5.204c0.425-1.465,1.13-2.831,2.077-4.032
			c0.866-1.102,1.981-1.995,3.251-2.608c1.319-0.629,2.776-0.949,4.241-0.928c1.473-0.028,2.938,0.271,4.284,0.878
			c1.234,0.579,2.316,1.445,3.14,2.532c0.892,1.201,1.547,2.568,1.911,4.025c0.453,1.759,0.669,3.564,0.65,5.379L231.245,340.65z"></path>
		<polygon fill="#74D8F1" points="271.405,328.372 263.284,328.372 263.284,357.022 258.402,357.022 258.402,328.365 
			250.24,328.365 250.24,324.082 271.405,324.082 271.405,328.365 		"></polygon>
		<path fill="#74D8F1" d="M299.866,324h-4.728l-12.502,33h5.259l3.363-9h12.403l3.643,9h5.246L299.866,324z M292.829,343
			l3.914-10.952c0.111-0.308,0.237-0.432,0.361-0.885c0.125-0.468,0.23-1.163,0.308-1.163h0.097c0.083,0,0.181,0.738,0.307,1.205
			c0.133,0.447,0.237,0.603,0.32,0.84L302.225,343H292.829z"></path>
		<path fill="#74D8F1" d="M350.486,357.022h-6.322l-11.475-12.669c-0.245-0.237-0.494-0.515-0.774-0.829s-0.543-0.635-0.795-0.927
			v14.425h-4.911v-32.927h4.911l0.041,14.477c0.349-0.44,0.719-0.888,1.103-1.334c0.377-0.453,0.712-0.816,0.893-1.108
			l10.241-12.034h5.888l-14.064,16.206L350.486,357.022z"></path>
		<path fill="#74D8F1" d="M377.217,353.389c1.13,0.015,2.261-0.182,3.32-0.572c0.963-0.37,1.841-0.956,2.546-1.709
			c0.747-0.823,1.305-1.801,1.64-2.86c0.418-1.29,0.615-2.644,0.586-4.005v-20.16h4.862v19.548c0.034,2.071-0.272,4.144-0.92,6.11
			c-0.553,1.632-1.459,3.124-2.666,4.36c-1.193,1.185-2.644,2.085-4.234,2.623c-1.808,0.606-3.697,0.906-5.603,0.878
			c-1.82,0.028-3.62-0.258-5.342-0.85c-1.528-0.531-2.917-1.403-4.054-2.547c-1.172-1.193-2.051-2.63-2.594-4.215
			c-0.643-1.882-0.949-3.856-0.908-5.846v-20.063h4.905v19.854c-0.021,1.396,0.174,2.777,0.601,4.108
			c0.349,1.097,0.928,2.101,1.695,2.952c0.745,0.781,1.659,1.395,2.665,1.778c1.116,0.411,2.288,0.607,3.473,0.601L377.217,353.389z
			"></path>
		<path fill="#74D8F1" d="M425.798,347.814c0,1.298-0.244,2.574-0.712,3.781c-0.446,1.157-1.137,2.204-2.022,3.077
			c-0.949,0.913-2.079,1.611-3.306,2.058c-1.48,0.529-3.035,0.781-4.597,0.752c-0.845,0-1.697-0.055-2.533-0.166
			c-0.809-0.104-1.606-0.266-2.387-0.475c-0.719-0.195-1.422-0.433-2.105-0.719c-0.586-0.244-1.158-0.551-1.689-0.899v-5.128
			c0.593,0.426,1.222,0.815,1.877,1.151c0.733,0.391,1.5,0.732,2.281,1.019c0.774,0.285,1.569,0.53,2.371,0.711
			c0.705,0.182,1.424,0.272,2.15,0.279c0.85,0.015,1.709-0.104,2.525-0.37c0.676-0.216,1.298-0.579,1.813-1.054
			c0.489-0.453,0.866-1.019,1.096-1.645c0.25-0.671,0.369-1.382,0.369-2.101c0.071-1.465-0.586-2.867-1.771-3.746
			c-0.629-0.475-1.312-0.88-2.038-1.186c-0.802-0.363-1.688-0.719-2.664-1.131c-1.222-0.48-2.414-1.032-3.572-1.639
			c-0.978-0.496-1.863-1.13-2.651-1.885c-0.698-0.697-1.255-1.527-1.625-2.448c-0.398-1.046-0.579-2.163-0.551-3.293
			c-0.05-2.566,1.073-5.015,3.055-6.654c0.99-0.81,2.114-1.431,3.32-1.827c1.319-0.439,2.693-0.656,4.075-0.649
			c1.41-0.021,2.803,0.125,4.185,0.426c1.165,0.265,2.309,0.634,3.412,1.102v4.577c-0.543-0.266-1.103-0.503-1.668-0.712
			c-0.627-0.224-1.296-0.419-1.994-0.6c-0.712-0.183-1.431-0.32-2.093-0.434c-0.655-0.111-1.327-0.167-1.989-0.167
			c-0.795-0.014-1.583,0.098-2.345,0.342c-0.634,0.202-1.22,0.53-1.723,0.956c-0.467,0.39-0.835,0.879-1.073,1.43
			c-0.251,0.593-0.377,1.234-0.363,1.877c-0.028,0.684,0.14,1.367,0.475,1.967c0.335,0.579,0.795,1.081,1.339,1.472
			c0.655,0.481,1.36,0.88,2.107,1.201c0.823,0.362,1.744,0.745,2.755,1.158c1.193,0.48,2.35,1.025,3.467,1.638
			c0.961,0.524,1.827,1.187,2.587,1.96c0.705,0.733,1.263,1.599,1.64,2.547c0.405,1.096,0.6,2.261,0.558,3.432L425.798,347.814z"></path>
		<path fill="#4EA4DC" d="M479.29,347.8c0,1.298-0.237,2.575-0.712,3.782c-0.446,1.157-1.13,2.211-2.022,3.076
			c-0.949,0.914-2.072,1.611-3.307,2.058c-1.473,0.53-3.028,0.781-4.59,0.753c-0.852,0-1.689-0.055-2.532-0.166
			c-0.802-0.104-1.611-0.266-2.394-0.475c-0.71-0.195-1.415-0.433-2.099-0.72c-0.593-0.244-1.158-0.551-1.696-0.899v-5.113
			c0.6,0.426,1.229,0.815,1.884,1.151c0.733,0.391,1.493,0.732,2.273,1.019c0.781,0.293,1.578,0.53,2.385,0.711
			c0.698,0.182,1.417,0.272,2.136,0.279c0.864,0.015,1.716-0.111,2.532-0.37c0.677-0.216,1.291-0.579,1.813-1.054
			c0.496-0.453,0.866-1.019,1.096-1.645c0.25-0.671,0.375-1.382,0.363-2.101c0.027-0.761-0.14-1.515-0.46-2.197
			c-0.322-0.601-0.769-1.13-1.312-1.549c-0.628-0.475-1.312-0.88-2.037-1.186c-0.795-0.363-1.689-0.719-2.665-1.131
			c-1.215-0.48-2.406-1.032-3.572-1.639c-0.963-0.496-1.856-1.13-2.637-1.885c-0.712-0.69-1.27-1.527-1.633-2.448
			c-0.391-1.046-0.586-2.163-0.558-3.293c-0.042-2.566,1.08-5.008,3.055-6.654c0.992-0.81,2.122-1.431,3.334-1.827
			c1.312-0.439,2.687-0.656,4.067-0.649c1.403-0.021,2.811,0.125,4.179,0.426c1.171,0.265,2.315,0.634,3.418,1.102v4.577
			c-0.543-0.266-1.103-0.503-1.675-0.712c-0.627-0.224-1.296-0.419-1.994-0.6c-0.712-0.183-1.423-0.32-2.093-0.434
			c-0.655-0.111-1.319-0.167-1.982-0.167c-0.795-0.014-1.59,0.098-2.343,0.342c-0.636,0.202-1.222,0.53-1.73,0.956
			c-0.46,0.39-0.831,0.879-1.075,1.43c-0.245,0.593-0.37,1.234-0.363,1.877c-0.014,0.684,0.147,1.367,0.482,1.967
			c0.342,0.579,0.795,1.081,1.346,1.472c0.65,0.481,1.353,0.88,2.093,1.201c0.823,0.362,1.744,0.745,2.748,1.158
			c1.201,0.474,2.359,1.025,3.489,1.638c0.949,0.524,1.82,1.187,2.58,1.96c0.705,0.733,1.255,1.599,1.633,2.547
			C479.13,345.457,479.332,346.629,479.29,347.8z"></path>
		<path fill="#4EA4DC" d="M508.13,324H503.4l-12.503,33h5.254l3.354-9h12.406l3.626,9h5.254L508.13,324z M501.069,343l3.907-10.966
			c0.118-0.308,0.236-0.421,0.362-0.867c0.126-0.475,0.237-1.167,0.313-1.167h0.091c0.085,0,0.189,0.762,0.322,1.209
			c0.124,0.441,0.223,0.594,0.306,0.831l4.08,10.96H501.069z"></path>
		<path fill="#4EA4DC" d="M559.946,324.096l-12.55,32.934h-4.932l-12.348-32.934h5.254l7.986,22.297
			c0.104,0.271,0.251,0.717,0.44,1.241c0.188,0.529,0.383,1.144,0.559,1.729c0.173,0.587,0.341,1.109,0.481,1.591
			c0.083,0.299,0.159,0.6,0.223,0.913c0-0.09,0.055-0.258,0.111-0.522c0.069-0.266,0.152-0.572,0.25-0.928
			c0.106-0.355,0.225-0.719,0.337-1.144c0.124-0.427,0.249-0.803,0.368-1.173l0.315-1.024c0.083-0.309,0.152-0.531,0.209-0.712
			l8.189-22.295h5.105V324.096z"></path>
		<polygon fill="#4EA4DC" points="589.665,357.029 573.558,357.029 573.558,324.096 589.615,324.096 589.615,328.387 
			578.405,328.387 578.405,338.383 589.665,338.383 589.665,342.598 578.405,342.598 578.405,352.796 589.665,352.796 
			589.665,357.016 		"></polygon>
		<polygon fill="#4EA4DC" points="644.9,328.379 636.781,328.379 636.781,357.029 631.904,357.029 631.904,328.365 623.735,328.365 
			623.735,324.082 644.9,324.082 644.9,328.365 		"></polygon>
		<polygon fill="#4EA4DC" points="687.761,357.029 682.878,357.029 682.878,342.38 665.354,342.38 665.354,357.008 660.443,357.008 
			660.443,324.082 665.354,324.082 665.354,338.146 682.878,338.146 682.878,324.082 687.781,324.082 687.781,357.008 		"></polygon>
		<polygon fill="#4EA4DC" points="721.916,357.029 705.802,357.029 705.802,324.096 721.874,324.096 721.874,328.387 
			710.657,328.387 710.657,338.383 721.916,338.383 721.916,342.598 710.657,342.598 710.657,352.796 721.916,352.796 
			721.916,357.016 		"></polygon>
		<path fill="#4EA4DC" d="M801.721,324.096l-10.212,32.934h-4.759l-7.86-23.229c-0.189-0.607-0.337-1.173-0.468-1.694
			c-0.118-0.518-0.196-1.054-0.237-1.591H778.1c-0.174,1.088-0.41,2.169-0.717,3.229l-7.291,23.278h-4.784l-10.507-32.927h4.925
			l7.353,23.566c0.161,0.529,0.309,1.059,0.42,1.597c0.124,0.559,0.209,1.123,0.249,1.695h0.1c0.069-0.489,0.166-0.964,0.285-1.431
			l0.468-1.933l7.395-23.571h4.429l7.892,23.823c0.138,0.46,0.264,0.935,0.403,1.431c0.14,0.522,0.223,1.053,0.272,1.598h0.048
			c0.063-0.461,0.161-0.921,0.287-1.361l0.481-1.743l7.032-23.719h4.896L801.721,324.096z"></path>
		<path fill="#4EA4DC" d="M843.87,333.402c-0.643-1.912-1.66-3.684-2.985-5.204c-1.283-1.452-2.881-2.603-4.661-3.37
			c-1.932-0.815-4.003-1.22-6.104-1.193c-2.253-0.04-4.5,0.378-6.584,1.223c-1.877,0.773-3.564,1.96-4.92,3.467
			c-1.396,1.59-2.441,3.446-3.075,5.454c-0.733,2.31-1.095,4.716-1.054,7.144c-0.028,2.31,0.327,4.604,1.067,6.795
			c0.648,1.925,1.681,3.712,3.035,5.232c1.317,1.451,2.943,2.595,4.757,3.348c1.967,0.816,4.089,1.222,6.223,1.186
			c2.204,0.043,4.396-0.376,6.432-1.213c1.849-0.768,3.495-1.953,4.82-3.453c1.374-1.597,2.406-3.46,3.035-5.477
			c0.74-2.329,1.087-4.764,1.061-7.213l0.015-0.015C844.951,337.832,844.597,335.565,843.87,333.402z M839.9,340.65
			c0.035,1.807-0.181,3.606-0.662,5.351c-0.396,1.444-1.082,2.791-2.009,3.977c-0.865,1.06-1.981,1.911-3.236,2.469
			c-1.382,0.587-2.86,0.879-4.354,0.853c-1.437,0.013-2.86-0.294-4.156-0.921c-1.229-0.607-2.31-1.487-3.154-2.568
			c-0.921-1.193-1.604-2.546-2.01-3.989c-0.487-1.689-0.725-3.44-0.71-5.197c-0.028-1.759,0.209-3.51,0.71-5.197
			c0.434-1.465,1.132-2.833,2.072-4.04c0.88-1.095,1.988-1.988,3.251-2.608c1.341-0.636,2.805-0.956,4.291-0.928
			c1.472-0.028,2.936,0.271,4.283,0.879c1.234,0.571,2.31,1.444,3.138,2.524c0.895,1.208,1.543,2.582,1.913,4.032
			c0.453,1.759,0.669,3.565,0.647,5.379L839.9,340.65z"></path>
		<path fill="#4EA4DC" d="M873.352,341.646c0.962-0.223,1.896-0.579,2.763-1.065c0.878-0.496,1.688-1.128,2.371-1.866
			c0.712-0.775,1.27-1.658,1.668-2.621c0.439-1.061,0.648-2.19,0.634-3.335c0.055-1.443-0.266-2.873-0.935-4.156
			c-0.614-1.088-1.493-2.003-2.568-2.651c-1.177-0.712-2.482-1.24-3.835-1.478c-1.578-0.293-3.183-0.474-4.787-0.474H862v33h4v-15
			h2.518l8.956,15h5.784L873.352,341.646z M868.662,339H866v-10h2.914c1.758,0,3.529-0.059,5.093,0.764
			c1.13,0.768,1.759,1.938,1.653,3.298l-0.014-0.09c0.098,1.575-0.564,3.352-1.794,4.356C872.331,338.388,870.504,339,868.662,339z"></path>
		<polygon fill="#4EA4DC" points="913.078,357.029 897.613,357.029 897.613,324.096 902.524,324.096 902.524,352.803 
			913.078,352.803 913.078,357.022 		"></polygon>
		<path fill="#4EA4DC" d="M955.634,339.918c0.033-2.345-0.398-4.674-1.277-6.851c-0.769-1.911-1.995-3.613-3.571-4.96
			c-1.696-1.395-3.669-2.469-5.791-3.047c-2.539-0.705-5.169-1.061-7.806-1.061H929v33h7.818c2.595,0,5.169-0.368,7.618-1.206
			c2.197-0.746,4.22-1.918,5.95-3.465c1.668-1.5,2.985-3.347,3.871-5.405c0.949-2.211,1.424-4.593,1.388-6.993L955.634,339.918z
			 M950.574,339.967c0.028,1.807-0.307,3.606-0.976,5.295c-0.614,1.534-1.562,2.915-2.784,4.038c-1.276,1.151-2.77,2.14-4.402,2.685
			c-1.854,0.627-3.795,1.016-5.755,1.016H933v-24h4.099c1.903,0,3.802-0.129,5.65,0.344c1.548,0.393,2.998,0.955,4.241,1.967
			c1.17,0.971,2.079,2.131,2.663,3.54c0.657,1.653,0.978,3.385,0.936,5.171L950.574,339.967z"></path>
	</g>
	<g id="miHoYo">
		<path fill="#74D8F1" d="M288.922,55.677c-15.271,0.336-27.912-11.765-28.247-27.028c-0.334-15.267,11.762-27.911,27.025-28.245
			c15.27-0.335,27.919,11.765,28.254,27.028c0,0.202,0,0.408,0,0.61C316.121,43.138,304.017,55.51,288.922,55.677z"></path>
		<path fill="#74D8F1" d="M264.276,114.774c-0.46-13.61,10.198-25.02,23.802-25.483c13.618-0.464,25.021,10.191,25.489,23.806
			c0.014,0.559,0.014,1.119,0,1.678l0,0v87.938c0.866,37.95-29.201,69.412-67.143,70.277c-37.949,0.865-69.412-29.188-70.276-67.138
			c-0.021-1.046-0.021-2.093,0-3.14v-51.426c0.285-10.708-8.156-19.624-18.857-19.917c-10.714-0.289-19.63,8.155-19.923,18.863
			c0,0.349,0,0.701,0,1.054v96.296l0,0c0.335,13.617-10.437,24.919-24.046,25.239c-13.611,0.335-24.913-10.436-25.24-24.046
			c-0.007-0.397-0.007-0.795,0-1.193l0,0v-96.311c0.202-10.711-8.309-19.557-19.024-19.763
			c-10.701-0.206-19.554,8.309-19.755,19.017c-0.007,0.248-0.007,0.495,0,0.746v96.311l0,0c0.46,13.617-10.199,25.023-23.802,25.491
			c-13.618,0.46-25.031-10.199-25.491-23.809c-0.014-0.56-0.014-1.124,0-1.683l0,0V141.862
			c-0.362-33.426,26.439-60.816,59.868-61.184c17.971,0.032,34.95,8.215,46.182,22.247l0,0c2.615,3.708,7.743,4.59,11.454,1.971
			c0.768-0.541,1.431-1.207,1.967-1.971l0,0c11.231-14.032,28.211-22.215,46.182-22.247c33.4,0.395,60.182,27.775,59.826,61.184
			v59.791c-0.294,10.708,8.147,19.624,18.863,19.916c10.701,0.287,19.615-8.155,19.909-18.863c0.014-0.349,0.014-0.704,0-1.053
			v-86.879H264.276z"></path>
		<path fill="#4EA4DC" d="M977.907,87.659l-0.015,0.014c5.575-6.474,13.568-10.373,22.107-10.778
			c-9.718-4.311-20.523-5.525-30.952-3.481c-12.382,2.651-18.724,12.145-24.834,14.287c-3.921,0.468-7.892,0.039-11.622-1.248
			c-8.316-3.304-17.183-4.999-26.133-5.002c-45.086,0-81.634,42.805-81.634,95.603s36.534,95.532,81.648,95.532
			c45.106,0,81.632-42.805,81.632-95.592c0.119-19.146-4.91-37.974-14.565-54.51C972.333,118.091,968.245,99.853,977.907,87.659z
			 M906.474,224.968l-0.015,0.014c-22.546,0-40.823-21.473-40.823-47.964c0-26.488,18.27-48.012,40.838-48.012
			c22.561,0,40.809,21.479,40.809,47.974S928.991,224.968,906.474,224.968z"></path>
		<path fill="#4EA4DC" d="M741.812,247.583V125.549l-48.707-90.123c-1.396-2.525-2.134-5.364-2.147-8.249
			c-0.266-6.111,4.479-11.276,10.59-11.542c0.145-0.007,0.292-0.01,0.445-0.01h24.137c4.457,0.021,8.525,2.528,10.54,6.501
			l26,48.089c0.816,1.508,2.302,2.533,4.005,2.767c1.632-0.21,3.041-1.267,3.698-2.78l25.21-46.631
			c1.66-4.604,5.944-7.747,10.826-7.945h24.151c6.104-0.304,11.301,4.401,11.609,10.509c0.013,0.321,0.013,0.642,0,0.963
			c0.026,2.854-0.712,5.661-2.136,8.13l-48.964,90.577v121.738c-0.564,13.616-12.062,24.186-25.679,23.62
			c-12.809-0.537-23.078-10.807-23.607-23.62"></path>
		<path fill="#4EA4DC" d="M686.241,100.118c-2.471-0.9-4.59-2.533-6.097-4.682c-1.593-1.514-3.572-3.348-5.512-5.043
			c-1.431-1.263-2.944-2.428-4.186-3.369c-1.918-0.911-3.377-2.585-4.019-4.615c0.81-2.082,2.442-3.739,4.521-4.572l11.328-8.064
			c1.416-1.294,3.14-2.204,5.009-2.645c1.954,5.445,2.651,11.264,2.037,17.015c0.042-1.476-0.586,15.326-3.05,15.996
			L686.241,100.118z"></path>
		<path fill="#4EA4DC" d="M615.964,81.401l-0.027-0.021c-45.093,0-81.634,42.805-81.634,95.599
			c0,52.801,36.575,95.605,81.661,95.605c45.094,0,81.641-42.805,81.641-95.592C697.604,124.206,661.051,81.401,615.964,81.401z
			 M615.964,225h-0.027c-22.546,0-40.824-21.503-40.824-47.991s18.312-47.996,40.852-47.996c22.546,0,40.824,21.492,40.824,47.986
			C656.788,203.495,638.51,225,615.964,225z"></path>
		<path fill="#4EA4DC" d="M556.87,90.337c-1.945,1.703-3.906,3.572-5.489,5.059c-1.493,2.151-3.614,3.795-6.077,4.701
			c-2.447-0.673-3.076-17.537-3.063-16.037c-0.614-5.776,0.084-11.615,2.037-17.088c1.855,0.446,3.571,1.36,4.967,2.657
			l11.287,8.093c2.072,0.841,3.705,2.501,4.507,4.587c-0.641,2.037-2.093,3.714-4.011,4.635
			C559.801,87.896,558.328,89.075,556.87,90.337z"></path>
		<path fill="#4EA4DC" d="M475.656,272.243c-13.687-0.146-24.696-11.309-24.661-25.002l0,0v-67.81
			c0.069-6.269-4.953-11.402-11.216-11.473h-26.538c-6.263,0.066-11.294,5.201-11.23,11.47c0,0.003,0,0.003,0,0.003
			c0,0.115,0,0.227,0,0.335l0,0v67.44l0,0c0.475,13.609-10.186,25.022-23.802,25.49c-13.604,0.46-25.017-10.198-25.484-23.81
			c-0.021-0.564-0.021-1.122,0-1.681l0,0V40.728l0,0c-0.467-13.61,10.193-25.022,23.809-25.486
			c13.604-0.464,25.017,10.195,25.477,23.806c0.028,0.562,0.028,1.119,0,1.681l0,0v62.561c-0.064,6.251,4.939,11.378,11.19,11.473
			h26.579c6.263-0.07,11.286-5.204,11.216-11.473V40.728l0,0c-0.46-13.61,10.198-25.022,23.802-25.486
			c13.618-0.464,25.031,10.195,25.491,23.806c0.014,0.562,0.014,1.119,0,1.681l0,0v206.486l0,0
			C500.343,260.907,489.35,272.083,475.656,272.243z"></path>
	</g>
</g>
</svg>
