


<svg version="1.1" id="레이어_1" xmlns="http://www.w3.org/2000/svg" xmlns:xlink="http://www.w3.org/1999/xlink" x="0px" y="0px" width="1000px" height="909px" viewBox="0 45.5 1000 909" enable-background="new 0 45.5 1000 909" xml:space="preserve">
<path fill="#07A3D7" d="M827.909,198.379l-57.291,0.002l49.428-50.551c11.233-11.233,16.851-25.463,16.851-42.688
	c0-17.224-5.617-31.454-16.851-42.687c-11.233-11.234-25.464-16.851-42.688-16.851c-17.225,0-31.828,5.617-43.811,16.851
	L589.759,198.381H417.886L272.974,62.456c-11.233-11.234-25.463-16.851-42.688-16.851c-17.224,0-31.454,5.617-42.687,16.851
	c-11.234,11.233-16.851,25.463-16.851,42.687c0,17.225,5.617,31.454,16.851,42.688l49.427,50.551h-57.291
	c-51.674,1.498-94.174,19.097-127.5,52.797C18.909,284.879,1.497,327.192,0,378.118v388.679
	c1.497,55.418,18.909,100.165,52.236,134.239c33.326,34.075,75.826,51.861,127.5,53.358h640.31
	c51.675-1.497,94.361-18.909,128.063-52.236c33.7-33.326,50.924-75.826,51.674-127.5V378.115
	c2.247-50.925-12.918-93.238-45.496-126.938C921.71,217.476,879.584,199.876,827.909,198.379z M878.46,766.797
	c-0.75,17.974-7.306,33.326-19.663,46.058c-12.356,12.73-27.521,19.097-45.495,19.097H187.595c-17.974,0-33.326-6.366-46.057-19.097
	c-12.731-12.731-19.097-28.084-19.097-46.058V385.981c0.75-18.723,7.115-34.076,19.098-46.059s27.336-18.349,46.059-19.098h625.707
	c18.722,0.75,34.076,7.115,46.058,19.098c11.982,11.983,18.349,27.335,19.099,46.059V766.797z M316.781,450.012
	c-17.974,0.75-33.144,7.302-45.5,19.659c-12.357,12.357-18.91,27.522-19.659,45.496v65.154c0.749,17.974,7.115,33.14,19.097,45.496
	c11.984,12.356,27.336,18.535,46.06,18.535c18.722,0,34.076-6.179,46.057-18.535c11.984-12.356,18.349-27.522,19.099-45.496v-65.154
	c-0.75-17.973-7.302-33.139-19.659-45.496S334.754,450.761,316.781,450.012z M690.852,450.012
	c-17.974,0.75-33.144,7.302-45.5,19.659s-18.91,27.522-19.659,45.496v65.154c0.749,17.974,7.115,33.14,19.098,45.496
	s27.336,18.535,46.059,18.535s34.075-6.179,46.059-18.535c11.982-12.356,18.349-27.522,19.098-45.496v-65.154
	c-0.749-17.973-7.302-33.139-19.658-45.496C723.99,457.313,708.824,450.761,690.852,450.012L690.852,450.012z"></path>
</svg>
