
<svg xmlns="http://www.w3.org/2000/svg" x="0" y="0" viewBox="0 0 420.1545 154.539" xml:space="preserve" width="280.103" height="103.026"><path d="M 172.89128,84.030958 V 40.244712 h 18.35159 v 44.430153 c 0,7.405036 3.86349,12.234399 12.87831,12.234399 8.37089,0 12.55634,-5.151324 12.55634,-12.556348 V 40.244712 h 18.35159 v 43.786246 c 0,17.063762 -10.30265,27.366402 -30.90793,27.366402 -20.92726,0.32196 -31.2299,-9.98069 -31.2299,-27.366402 z m 70.50873,-27.044446 h 16.41984 v 7.405024 h 0.32196 c 3.8635,-5.79524 9.01481,-8.69286 16.41984,-8.69286 11.59046,0 18.35161,8.370905 18.35161,20.283335 V 110.43148 H 277.84949 V 79.201592 c 0,-5.47328 -2.89763,-9.336773 -8.37091,-9.336773 -5.47327,0 -9.33677,4.829366 -9.33677,11.268517 V 110.43148 H 243.07805 V 56.986512 Z M 303.6061,36.059259 h 17.06376 V 49.903438 H 303.6061 Z m 0,20.927253 h 17.06376 V 110.10953 H 303.6061 Z m 30.264,39.278837 V 70.830695 h -7.08303 V 56.986512 h 7.08303 v -16.7418 h 16.41985 v 16.7418 h 9.65874 v 13.844183 h -9.65874 v 21.893119 c 0,4.18545 2.25372,5.151321 5.79526,5.151321 h 3.86348 v 12.234395 c -1.60979,0.32195 -4.82937,0.96587 -9.33678,0.96587 -9.65872,0 -16.74181,-3.21958 -16.74181,-14.810051 z m 36.70321,18.351581 h 5.79523 c 4.82937,0 7.08306,-1.93174 7.08306,-5.47327 0,-2.25371 -0.96586,-5.47328 -3.21958,-10.946567 L 364.4561,57.30847 h 17.70767 l 7.08305,22.537035 c 1.60979,5.151321 3.21961,12.234396 3.21961,12.234396 h 0.32193 c 0,0 1.60982,-7.083075 3.21958,-12.234396 l 7.08309,-22.537035 h 17.06372 l -18.35154,53.76693 c -4.18548,12.55635 -9.33678,16.7418 -19.96137,16.7418 h -10.9466 z" id="path31"></path><path class="st0" fill="#4c4c4c" d="M 136.83201,108.17778 V 36.059259 L 74.372224,0 v 27.688362 l 24.468784,14.166137 c 0.965877,0.643915 0.965877,1.931747 0,2.253702 L 69.864819,60.850004 c -0.965874,0.643914 -1.93175,0.321957 -2.575666,0 L 38.312964,44.108201 c -0.965874,-0.321955 -0.965874,-1.931744 0,-2.253702 L 62.781747,27.688362 V 0 L 0,36.059259 v 72.118521 -0.32196 0.32196 L 23.824869,94.3336 V 66.001328 c 0,-0.965877 1.287831,-1.609792 1.931746,-1.287832 l 28.976187,16.7418 c 0.965874,0.643913 1.287834,1.287829 1.287834,2.253701 V 117.1926 c 0,0.96587 -1.287834,1.60979 -1.931747,1.28782 L 29.620108,104.31429 5.7952386,118.15847 68.255027,154.53969 130.71482,118.48042 106.88995,104.63625 82.42117,118.80239 c -0.965874,0.64391 -1.93175,0 -1.93175,-1.28783 V 84.030958 c 0,-0.965875 0.643916,-1.931749 1.287829,-2.253709 L 110.75344,65.035451 c 0.96588,-0.643915 1.93175,0 1.93175,1.287832 v 28.332278 z" id="path33"></path><path d="m 68.255027,154.53969 62.459793,-36.05927 -23.82487,-13.84417 -24.46878,14.16614 c -0.965874,0.64391 -1.93175,0 -1.93175,-1.28783 V 84.030958 c 0,-0.965875 0.643916,-1.931749 1.287829,-2.253709 L 110.75344,65.035451 c 0.96588,-0.643915 1.93175,0 1.93175,1.287832 v 28.332278 l 23.82487,13.844179 V 36.059259 l -68.255033,39.6008 z" id="path35"></path><path d="m 74.372224,0 v 27.688362 l 24.468784,14.166137 c 0.965877,0.643915 0.965877,1.931747 0,2.253702 L 69.864819,60.850004 c -0.965874,0.643914 -1.93175,0.321957 -2.575666,0 L 38.312964,44.108201 c -0.965874,-0.321955 -0.965874,-1.931744 0,-2.253702 L 62.781747,27.688362 V 0 L 0,36.059259 l 68.255027,39.6008 68.255033,-39.6008 z" fill="#808080" id="path37"></path><path class="st0" fill="#4c4c4c" d="M 54.41085,118.80239 29.942063,104.63625 6.1171961,118.48042 68.576987,154.53969 V 75.660059 L 0,36.059259 v 72.118521 -0.32196 0.32196 L 23.824869,94.3336 V 66.001328 c 0,-0.965877 1.287831,-1.609792 1.931746,-1.287832 l 28.976187,16.7418 c 0.965874,0.643913 1.287834,1.287829 1.287834,2.253701 V 117.1926 c 0.321961,1.28782 -0.643913,2.2537 -1.609786,1.60979 z" id="path39"></path></svg>