


<svg version="1.1" id="레이어_1" xmlns="http://www.w3.org/2000/svg" xmlns:xlink="http://www.w3.org/1999/xlink" x="0px" y="0px" width="1000px" height="1000px" viewBox="0 0 1000 1000" enable-background="new 0 0 1000 1000" xml:space="preserve">
<g>
	<linearGradient id="SVGID_1_" gradientUnits="userSpaceOnUse" x1="0" y1="500" x2="1000" y2="500">
		<stop offset="0" style="stop-color:#00A495"></stop>
		<stop offset="1" style="stop-color:#13AD65"></stop>
	</linearGradient>
	<path fill-rule="evenodd" clip-rule="evenodd" fill="url(#SVGID_1_)" d="M1000,899.999c0,55.23-44.773,100-100,100H100
		c-55.227,0-100-44.77-100-100v-800C0,44.772,44.773,0.001,100,0.001h800c55.227,0,100,44.771,100,99.998V899.999z"></path>
	<path fill="#FFFFFF" d="M725.603,521.664h-27.844V744.43c0,14.203-11.367,25.57-25.574,25.57H573.31
		c-8.527,0-15.914-7.391-15.914-15.914V594.969c0-7.953-6.25-14.773-14.773-14.773h-85.241c-7.957,0-14.773,6.25-14.773,14.773
		v159.117c0,8.523-7.391,15.914-15.914,15.914h-98.879c-14.207,0-25.57-11.367-25.57-25.57V521.664h-27.848
		c-29.551,0-43.758-35.232-23.301-56.256l225.605-225.605c13.07-13.07,33.526-13.07,46.597,0l225.605,225.605
		C769.36,485.865,755.157,521.664,725.603,521.664z"></path>
</g>
</svg>
